<?xml version="1.0" encoding="UTF-8" standalone="no"?>
<!DOCTYPE svg PUBLIC "-//W3C//DTD SVG 1.1//EN"
 "http://www.w3.org/Graphics/SVG/1.1/DTD/svg11.dtd">
<!-- Generated by graphviz version 5.0.0 (20220707.1540)
 -->
<!-- Title: UmlClassDiagram Pages: 1 -->
<svg width="418pt" height="355pt"
 viewBox="0.00 0.00 418.23 354.80" xmlns="http://www.w3.org/2000/svg" xmlns:xlink="http://www.w3.org/1999/xlink">
<g id="graph0" class="graph" transform="scale(1 1) rotate(0) translate(4 350.8)">
<title>UmlClassDiagram</title>
<polygon fill="white" stroke="transparent" points="-4,4 -4,-350.8 414.23,-350.8 414.23,4 -4,4"/>
<!-- 0 -->
<g id="node1" class="node">
<title>0</title>
<polygon fill="#f2f2f2" stroke="black" points="25.66,-229.5 25.66,-346.3 384.57,-346.3 384.57,-229.5 25.66,-229.5"/>
<text text-anchor="middle" x="205.11" y="-329.7" font-family="Times,serif" font-size="14.00">&lt;&lt;Interface&gt;&gt;</text>
<text text-anchor="middle" x="205.11" y="-312.9" font-family="Times,serif" font-size="14.00">IPowerBootstrapToken</text>
<text text-anchor="middle" x="205.11" y="-296.1" font-family="Times,serif" font-size="14.00">src/PowerBootstrapToken.flat.sol</text>
<polyline fill="none" stroke="black" points="25.66,-287.9 384.57,-287.9 "/>
<text text-anchor="start" x="33.66" y="-271.3" font-family="Times,serif" font-size="14.00">External:</text>
<text text-anchor="start" x="33.66" y="-254.5" font-family="Times,serif" font-size="14.00"> &#160;&#160;&#160;&#160;pastBalanceOf(account: address, epoch: uint256): uint256</text>
<text text-anchor="start" x="33.66" y="-237.7" font-family="Times,serif" font-size="14.00"> &#160;&#160;&#160;&#160;pastTotalSupply(epoch: uint256): uint256</text>
</g>
<!-- 1 -->
<g id="node2" class="node">
<title>1</title>
<polygon fill="#f2f2f2" stroke="black" points="0,-0.5 0,-192.5 410.23,-192.5 410.23,-0.5 0,-0.5"/>
<text text-anchor="middle" x="205.11" y="-175.9" font-family="Times,serif" font-size="14.00">PowerBootstrapToken</text>
<text text-anchor="middle" x="205.11" y="-159.1" font-family="Times,serif" font-size="14.00">src/PowerBootstrapToken.flat.sol</text>
<polyline fill="none" stroke="black" points="0,-150.9 410.23,-150.9 "/>
<text text-anchor="start" x="8" y="-134.3" font-family="Times,serif" font-size="14.00">Internal:</text>
<text text-anchor="start" x="8" y="-117.5" font-family="Times,serif" font-size="14.00"> &#160;&#160;_totalSupply: uint256</text>
<text text-anchor="start" x="8" y="-100.7" font-family="Times,serif" font-size="14.00"> &#160;&#160;_balances: mapping(address=&gt;uint256)</text>
<polyline fill="none" stroke="black" points="0,-92.5 410.23,-92.5 "/>
<text text-anchor="start" x="8" y="-75.9" font-family="Times,serif" font-size="14.00">External:</text>
<text text-anchor="start" x="8" y="-59.1" font-family="Times,serif" font-size="14.00"> &#160;&#160;&#160;pastBalanceOf(account_: address, uint256): uint256</text>
<text text-anchor="start" x="8" y="-42.3" font-family="Times,serif" font-size="14.00"> &#160;&#160;&#160;pastTotalSupply(uint256): uint256</text>
<text text-anchor="start" x="8" y="-25.5" font-family="Times,serif" font-size="14.00">Public:</text>
<text text-anchor="start" x="8" y="-8.7" font-family="Times,serif" font-size="14.00"> &#160;&#160;&#160;constructor(initialAccounts_: address[], initialBalances_: uint256[])</text>
</g>
<!-- 1&#45;&gt;0 -->
<g id="edge1" class="edge">
<title>1&#45;&gt;0</title>
<path fill="none" stroke="black" stroke-dasharray="5,2" d="M205.11,-192.75C205.11,-194.91 205.11,-197.06 205.11,-199.21"/>
<polygon fill="none" stroke="black" points="194.61,-199.42 205.11,-229.42 215.61,-199.42 194.61,-199.42"/>
</g>
</g>
</svg>
